<mxfile host="app.diagrams.net" modified="2022-01-27T04:39:47.727Z" agent="5.0 (Macintosh; Intel Mac OS X 10_15_7) AppleWebKit/537.36 (KHTML, like Gecko) Chrome/97.0.4692.71 Safari/537.36" etag="zq1qVWLBS7QX7eKKb0Z-" version="16.4.7" type="github">
  <diagram id="C5RBs43oDa-KdzZeNtuy" name="Page-1">
    <mxGraphModel dx="1248" dy="701" grid="1" gridSize="10" guides="1" tooltips="1" connect="1" arrows="1" fold="1" page="1" pageScale="1" pageWidth="827" pageHeight="1169" math="0" shadow="0">
      <root>
        <mxCell id="WIyWlLk6GJQsqaUBKTNV-0" />
        <mxCell id="WIyWlLk6GJQsqaUBKTNV-1" parent="WIyWlLk6GJQsqaUBKTNV-0" />
        <mxCell id="FKsrzg5qgHuZKxdYXEDl-1" value="functionNode" style="swimlane;fontStyle=1;align=center;verticalAlign=top;childLayout=stackLayout;horizontal=1;startSize=26;horizontalStack=0;resizeParent=1;resizeParentMax=0;resizeLast=0;collapsible=1;marginBottom=0;" vertex="1" parent="WIyWlLk6GJQsqaUBKTNV-1">
          <mxGeometry x="550" y="60" width="380" height="218" as="geometry" />
        </mxCell>
        <mxCell id="FKsrzg5qgHuZKxdYXEDl-2" value="+ mMutex: mutex&#xa;+ mInDegree: int&#xa;+ mBodyFunc: function&lt;void()&gt;&#xa;+ mAdjacentNodePtrs: vector&lt;functionNode *&gt;&#xa;+ mG: dependencyGraph&#xa;" style="text;strokeColor=none;fillColor=none;align=left;verticalAlign=top;spacingLeft=4;spacingRight=4;overflow=hidden;rotatable=0;points=[[0,0.5],[1,0.5]];portConstraint=eastwest;" vertex="1" parent="FKsrzg5qgHuZKxdYXEDl-1">
          <mxGeometry y="26" width="380" height="84" as="geometry" />
        </mxCell>
        <mxCell id="FKsrzg5qgHuZKxdYXEDl-3" value="" style="line;strokeWidth=1;fillColor=none;align=left;verticalAlign=middle;spacingTop=-1;spacingLeft=3;spacingRight=3;rotatable=0;labelPosition=right;points=[];portConstraint=eastwest;" vertex="1" parent="FKsrzg5qgHuZKxdYXEDl-1">
          <mxGeometry y="110" width="380" height="8" as="geometry" />
        </mxCell>
        <mxCell id="FKsrzg5qgHuZKxdYXEDl-4" value="+ functionNode(dependencyGraph *G, function&lt;void()&gt; bodyFunc)&#xa;+ executeFunction(): void&#xa;+ addAdjacentNode(functionNode *nodePtr): void&#xa;+ modifyIndegree(int count): void&#xa;+ getIndegree() const : int&#xa;+ getGraphPtr() const : dependencyGraph *&#xa;" style="text;strokeColor=none;fillColor=none;align=left;verticalAlign=top;spacingLeft=4;spacingRight=4;overflow=hidden;rotatable=0;points=[[0,0.5],[1,0.5]];portConstraint=eastwest;" vertex="1" parent="FKsrzg5qgHuZKxdYXEDl-1">
          <mxGeometry y="118" width="380" height="100" as="geometry" />
        </mxCell>
        <mxCell id="FKsrzg5qgHuZKxdYXEDl-6" value="dependencyGraph" style="swimlane;fontStyle=1;align=center;verticalAlign=top;childLayout=stackLayout;horizontal=1;startSize=26;horizontalStack=0;resizeParent=1;resizeParentMax=0;resizeLast=0;collapsible=1;marginBottom=0;" vertex="1" parent="WIyWlLk6GJQsqaUBKTNV-1">
          <mxGeometry x="34" y="60" width="380" height="250" as="geometry" />
        </mxCell>
        <mxCell id="FKsrzg5qgHuZKxdYXEDl-7" value="+ mMutex: mutex&#xa;+ mCv: condition_variable&#xa;+ numPendingNodes: int&#xa;+ mThreadPool: threadPool&#xa;+ mNodePtrs: vector&lt;functionNode *&gt;" style="text;strokeColor=none;fillColor=none;align=left;verticalAlign=top;spacingLeft=4;spacingRight=4;overflow=hidden;rotatable=0;points=[[0,0.5],[1,0.5]];portConstraint=eastwest;" vertex="1" parent="FKsrzg5qgHuZKxdYXEDl-6">
          <mxGeometry y="26" width="380" height="84" as="geometry" />
        </mxCell>
        <mxCell id="FKsrzg5qgHuZKxdYXEDl-8" value="" style="line;strokeWidth=1;fillColor=none;align=left;verticalAlign=middle;spacingTop=-1;spacingLeft=3;spacingRight=3;rotatable=0;labelPosition=right;points=[];portConstraint=eastwest;" vertex="1" parent="FKsrzg5qgHuZKxdYXEDl-6">
          <mxGeometry y="110" width="380" height="10" as="geometry" />
        </mxCell>
        <mxCell id="FKsrzg5qgHuZKxdYXEDl-9" value="+ functionNode *addNode(std::function&lt;void()&gt; bodyFunc)&#xa;+ make_edge(functionNode *src, functionNode *dst): static void&#xa;+ modifyNumPendingNodes(int count): void &#xa;+ pushFunctionNode(functionNode *nodePtr):  void &#xa;+ start(): void &#xa;+ waitForAll(): void &#xa;+ dependencyGraph(int numWorkers)&#xa;+ ~dependencyGraph()" style="text;strokeColor=none;fillColor=none;align=left;verticalAlign=top;spacingLeft=4;spacingRight=4;overflow=hidden;rotatable=0;points=[[0,0.5],[1,0.5]];portConstraint=eastwest;" vertex="1" parent="FKsrzg5qgHuZKxdYXEDl-6">
          <mxGeometry y="120" width="380" height="130" as="geometry" />
        </mxCell>
        <mxCell id="FKsrzg5qgHuZKxdYXEDl-12" value="" style="edgeStyle=segmentEdgeStyle;endArrow=classic;html=1;rounded=0;exitX=1.004;exitY=0.09;exitDx=0;exitDy=0;exitPerimeter=0;entryX=-0.004;entryY=0.137;entryDx=0;entryDy=0;entryPerimeter=0;" edge="1" parent="WIyWlLk6GJQsqaUBKTNV-1" source="FKsrzg5qgHuZKxdYXEDl-9" target="FKsrzg5qgHuZKxdYXEDl-4">
          <mxGeometry width="50" height="50" relative="1" as="geometry">
            <mxPoint x="414" y="80" as="sourcePoint" />
            <mxPoint x="550" y="203" as="targetPoint" />
            <Array as="points">
              <mxPoint x="480" y="192" />
              <mxPoint x="480" y="192" />
            </Array>
          </mxGeometry>
        </mxCell>
        <mxCell id="FKsrzg5qgHuZKxdYXEDl-13" value="threadPool&#xa;" style="swimlane;fontStyle=1;align=center;verticalAlign=top;childLayout=stackLayout;horizontal=1;startSize=26;horizontalStack=0;resizeParent=1;resizeParentMax=0;resizeLast=0;collapsible=1;marginBottom=0;" vertex="1" parent="WIyWlLk6GJQsqaUBKTNV-1">
          <mxGeometry x="290" y="440" width="376" height="210" as="geometry" />
        </mxCell>
        <mxCell id="FKsrzg5qgHuZKxdYXEDl-14" value="+ numWokers: int&#xa;+ isTerminated: bool&#xa;+ workers: vector&lt;thread&gt;&#xa;+ pendingJobs: queue&lt;functionNode *&gt;&#xa;+ m: mutex&#xa;+ cv: std::condition_variable" style="text;strokeColor=none;fillColor=none;align=left;verticalAlign=top;spacingLeft=4;spacingRight=4;overflow=hidden;rotatable=0;points=[[0,0.5],[1,0.5]];portConstraint=eastwest;" vertex="1" parent="FKsrzg5qgHuZKxdYXEDl-13">
          <mxGeometry y="26" width="376" height="94" as="geometry" />
        </mxCell>
        <mxCell id="FKsrzg5qgHuZKxdYXEDl-15" value="" style="line;strokeWidth=1;fillColor=none;align=left;verticalAlign=middle;spacingTop=-1;spacingLeft=3;spacingRight=3;rotatable=0;labelPosition=right;points=[];portConstraint=eastwest;" vertex="1" parent="FKsrzg5qgHuZKxdYXEDl-13">
          <mxGeometry y="120" width="376" height="8" as="geometry" />
        </mxCell>
        <mxCell id="FKsrzg5qgHuZKxdYXEDl-16" value="+ enqueueNode(functionNode *node): void &#xa;+ threadPool(int _numWorkers);&#xa;+ ~threadPool();&#xa;&#xa;+ workerThread(): void" style="text;strokeColor=none;fillColor=none;align=left;verticalAlign=top;spacingLeft=4;spacingRight=4;overflow=hidden;rotatable=0;points=[[0,0.5],[1,0.5]];portConstraint=eastwest;" vertex="1" parent="FKsrzg5qgHuZKxdYXEDl-13">
          <mxGeometry y="128" width="376" height="82" as="geometry" />
        </mxCell>
        <mxCell id="FKsrzg5qgHuZKxdYXEDl-17" value="" style="edgeStyle=segmentEdgeStyle;endArrow=classic;html=1;rounded=0;exitX=0.332;exitY=1.004;exitDx=0;exitDy=0;exitPerimeter=0;entryX=-0.003;entryY=1.038;entryDx=0;entryDy=0;entryPerimeter=0;" edge="1" parent="WIyWlLk6GJQsqaUBKTNV-1" source="FKsrzg5qgHuZKxdYXEDl-9" target="FKsrzg5qgHuZKxdYXEDl-14">
          <mxGeometry width="50" height="50" relative="1" as="geometry">
            <mxPoint x="540" y="400" as="sourcePoint" />
            <mxPoint x="590" y="350" as="targetPoint" />
            <Array as="points">
              <mxPoint x="160" y="564" />
            </Array>
          </mxGeometry>
        </mxCell>
        <mxCell id="FKsrzg5qgHuZKxdYXEDl-18" value="Use" style="endArrow=open;endSize=12;dashed=1;html=1;rounded=0;exitX=0.996;exitY=-0.043;exitDx=0;exitDy=0;exitPerimeter=0;" edge="1" parent="WIyWlLk6GJQsqaUBKTNV-1" source="FKsrzg5qgHuZKxdYXEDl-16" target="FKsrzg5qgHuZKxdYXEDl-4">
          <mxGeometry width="160" relative="1" as="geometry">
            <mxPoint x="560" y="390" as="sourcePoint" />
            <mxPoint x="720" y="390" as="targetPoint" />
          </mxGeometry>
        </mxCell>
      </root>
    </mxGraphModel>
  </diagram>
</mxfile>
